<svg width="48" height="48" viewBox="0 0 48 48" fill="none" xmlns="http://www.w3.org/2000/svg">
<path vector-effect="non-scaling-stroke" fill-rule="evenodd" clip-rule="evenodd" d="M26 34H22V42C22 43.1046 21.1046 44 20 44C18.8954 44 18 43.1046 18 42V34C15.7909 34 14 32.2091 14 30V19C14 18.4477 14.4477 18 15 18H33C33.5523 18 34 18.4477 34 19V30C34 32.2091 32.2091 34 30 34V42C30 43.1046 29.1046 44 28 44C26.8954 44 26 43.1046 26 42V34Z" fill="currentColor"/>
<rect vector-effect="non-scaling-stroke" x="36" y="18" width="4" height="14" rx="2" fill="currentColor"/>
<rect vector-effect="non-scaling-stroke" x="8" y="18" width="4" height="14" rx="2" fill="currentColor"/>
<path vector-effect="non-scaling-stroke" fill-rule="evenodd" clip-rule="evenodd" d="M19.4142 8.58579C19.4803 8.65189 19.5408 8.72147 19.5957 8.79394C20.7942 8.30419 22.245 8 24 8C25.755 8 27.2058 8.30419 28.4043 8.79394C28.4592 8.72147 28.5197 8.65189 28.5858 8.58579L30.5858 6.58579C31.3668 5.80474 32.6332 5.80474 33.4142 6.58579C34.1953 7.36683 34.1953 8.63317 33.4142 9.41421L31.6981 11.1303C32.8694 12.4615 33.4612 13.9278 33.7487 14.9C33.9194 15.4768 33.4687 16 32.8672 16H15.1328C14.5313 16 14.0806 15.4768 14.2513 14.9C14.5388 13.9278 15.1306 12.4615 16.3019 11.1303L14.5858 9.41421C13.8047 8.63317 13.8047 7.36683 14.5858 6.58579C15.3668 5.80474 16.6332 5.80474 17.4142 6.58579L19.4142 8.58579ZM19 14C19.5523 14 20 13.5523 20 13C20 12.4477 19.5523 12 19 12C18.4477 12 18 12.4477 18 13C18 13.5523 18.4477 14 19 14ZM30 13C30 13.5523 29.5523 14 29 14C28.4477 14 28 13.5523 28 13C28 12.4477 28.4477 12 29 12C29.5523 12 30 12.4477 30 13Z" fill="currentColor"/>
</svg>
