<svg width="48" height="48" viewBox="0 0 48 48" fill="none" xmlns="http://www.w3.org/2000/svg">
<path vector-effect="non-scaling-stroke" fill-rule="evenodd" clip-rule="evenodd" d="M32.06 5.4079C32.1649 4.502 31.3007 3.79105 30.4282 4.05613C28.8602 4.53225 27.2651 5.53981 26.2058 6.77942C25.1915 7.95206 24.2767 9.6793 24.0822 11.4759C23.9903 12.3256 24.7632 13.0064 25.6015 12.8397C27.3109 12.5001 28.9221 11.4217 29.9986 10.1178C31.0601 8.8329 31.8567 7.16325 32.06 5.4079ZM39.4313 32.5006C39.9666 32.813 40.1962 33.465 39.9758 34.0444C39.5672 35.1188 38.8054 36.8525 37.5947 38.622C35.9358 41.0466 34.2141 43.4624 31.5018 43.5122C28.8369 43.5615 27.98 41.932 24.933 41.932C21.8872 41.932 20.935 43.4624 18.4123 43.5615C15.7943 43.6605 13.8007 40.9396 12.128 38.5238C8.71014 33.5825 6.09813 24.5605 9.60541 18.4707C11.3477 15.4464 14.4614 13.5313 17.841 13.4822C20.4118 13.4332 22.8383 15.2117 24.4099 15.2117C25.9804 15.2117 28.9292 13.0729 32.029 13.387C33.171 13.4346 36.1285 13.8043 38.4157 16.2249C38.9145 16.7527 38.86 17.596 38.3012 18.0595C37.0176 19.1241 34.9754 21.371 35.0072 24.9081C35.0486 29.3594 37.9147 31.6157 39.4313 32.5006Z" fill="currentColor"/>
</svg>
