<svg width="48" height="48" viewBox="0 0 48 48" fill="none" xmlns="http://www.w3.org/2000/svg">
<path vector-effect="non-scaling-stroke" fill-rule="evenodd" clip-rule="evenodd" d="M24 40L24 12C24 12 18 10 14 10C9.99996 10 5.99996 12 5.99996 12V40C5.99996 40 11.9999 38 16 38C20 38 24 40 24 40Z" stroke="currentColor" stroke-width="2" stroke-linecap="round" stroke-linejoin="round"/>
<path vector-effect="non-scaling-stroke" fill-rule="evenodd" clip-rule="evenodd" d="M24 40L24 12C24 12 30 10 34 10C38 10 42 12 42 12V40C42 40 36.0001 38 32 38C28 38 24 40 24 40Z" stroke="currentColor" stroke-width="2" stroke-linecap="round" stroke-linejoin="round"/>
</svg>
