<svg width="48" height="48" viewBox="0 0 48 48" fill="none" xmlns="http://www.w3.org/2000/svg">
<path vector-effect="non-scaling-stroke" d="M30.3184 27.5244L30.168 30.4824C35.7331 31.4851 39.042 33.5407 39.042 35.0949C39.042 36.5989 35.8835 38.7548 30.0176 39.7575C29.2155 39.9079 28.7141 40.6599 28.8144 41.4621C28.9648 42.2642 29.7168 42.8157 30.519 42.6653C37.7385 41.4621 42 38.6545 42 35.145C42 31.1843 36.6857 28.5773 30.3184 27.5244Z" fill="currentColor"/>
<path vector-effect="non-scaling-stroke" d="M20.542 36.2479C19.9905 35.6964 19.0379 35.6964 18.4363 36.2479C17.8347 36.7994 17.8848 37.752 18.4363 38.3536L20.1911 40.1083C12.6206 39.5067 7.95799 36.9498 7.95799 35.0948C7.95799 33.4904 11.6179 31.2845 17.6843 30.3319L17.4837 27.3739C10.7154 28.3766 5 30.9837 5 35.0446C5 39.7574 12.5203 42.4647 20.4417 43.0663L18.3862 45.1219C17.8347 45.6734 17.8347 46.6259 18.3862 47.2276C18.687 47.5284 19.0379 47.6788 19.439 47.6788C19.8401 47.6788 20.1911 47.5284 20.4919 47.2276L24.9038 42.8156C25.2046 42.5148 25.355 42.1639 25.355 41.7628C25.355 41.3617 25.2046 41.0108 24.9038 40.7099L20.542 36.2479Z" fill="currentColor"/>
<path vector-effect="non-scaling-stroke" d="M31.3713 20.1544L30.8699 15.9431C30.5691 13.336 28.3631 11.3807 25.706 11.3807H22.0962C19.4892 11.3807 17.2832 13.336 16.9323 15.9431L16.4309 20.1544C16.3808 20.7059 16.7317 21.2073 17.2832 21.3577C18.0352 21.5081 18.8374 21.6585 19.6396 21.7588L20.1911 31.6355C20.2412 32.4376 20.893 33.0393 21.645 33.0393H26.1572C26.9594 33.0393 27.561 32.4376 27.6111 31.6355L28.1626 21.7588C28.9648 21.6585 29.7669 21.5081 30.519 21.3577C31.1206 21.2574 31.4715 20.7059 31.3713 20.1544Z" fill="currentColor"/>
<path vector-effect="non-scaling-stroke" d="M23.9011 9.72629C26.5869 9.72629 28.7642 7.54898 28.7642 4.86314C28.7642 2.1773 26.5869 0 23.9011 0C21.2153 0 19.0379 2.1773 19.0379 4.86314C19.0379 7.54898 21.2153 9.72629 23.9011 9.72629Z" fill="currentColor"/>
</svg>
