<svg width="48" height="48" viewBox="0 0 48 48" fill="none" xmlns="http://www.w3.org/2000/svg">
<path vector-effect="non-scaling-stroke" d="M42.5844 12L39.7545 29.1627C39.6748 29.6457 39.2573 30 38.7678 30H13.2374C12.7479 30 12.3304 29.6457 12.2508 29.1627L9.55893 12.8373C9.47929 12.3543 9.06175 12 8.57225 12H3.99997" stroke="currentColor" stroke-width="2" stroke-linecap="round" stroke-linejoin="round"/>
<path vector-effect="non-scaling-stroke" fill-rule="evenodd" clip-rule="evenodd" d="M16 40C17.1046 40 18 39.1046 18 38C18 36.8954 17.1046 36 16 36C14.8954 36 14 36.8954 14 38C14 39.1046 14.8954 40 16 40Z" stroke="currentColor" stroke-width="2"/>
<path vector-effect="non-scaling-stroke" fill-rule="evenodd" clip-rule="evenodd" d="M36 40C37.1046 40 38 39.1046 38 38C38 36.8954 37.1046 36 36 36C34.8954 36 34 36.8954 34 38C34 39.1046 34.8954 40 36 40Z" stroke="currentColor" stroke-width="2"/>
<path vector-effect="non-scaling-stroke" d="M32 16H20" stroke="currentColor" stroke-width="2" stroke-linecap="round"/>
<path vector-effect="non-scaling-stroke" d="M26 10V22" stroke="currentColor" stroke-width="2" stroke-linecap="round"/>
</svg>
