<svg width="48" height="48" viewBox="0 0 48 48" fill="none" xmlns="http://www.w3.org/2000/svg">
<path vector-effect="non-scaling-stroke" fill-rule="evenodd" clip-rule="evenodd" d="M11.4208 11.9999H42.5843L39.6164 29.9999H14.3888L11.4208 11.9999Z" stroke="currentColor" stroke-width="2" stroke-linecap="round" stroke-linejoin="round"/>
<path vector-effect="non-scaling-stroke" fill-rule="evenodd" clip-rule="evenodd" d="M18 40C19.1046 40 20 39.1046 20 38C20 36.8954 19.1046 36 18 36C16.8954 36 16 36.8954 16 38C16 39.1046 16.8954 40 18 40Z" stroke="currentColor" stroke-width="2"/>
<path vector-effect="non-scaling-stroke" fill-rule="evenodd" clip-rule="evenodd" d="M36 40C37.1046 40 38 39.1046 38 38C38 36.8954 37.1046 36 36 36C34.8954 36 34 36.8954 34 38C34 39.1046 34.8954 40 36 40Z" stroke="currentColor" stroke-width="2"/>
<path vector-effect="non-scaling-stroke" d="M14 12H6" stroke="currentColor" stroke-width="2" stroke-linecap="round"/>
</svg>
