<svg width="48" height="48" viewBox="0 0 48 48" fill="none" xmlns="http://www.w3.org/2000/svg">
<path vector-effect="non-scaling-stroke" d="M10 24H34V39C34 41.7614 31.7614 44 29 44H15C12.2386 44 10 41.7614 10 39V24Z" stroke="currentColor" stroke-width="2"/>
<path vector-effect="non-scaling-stroke" d="M34 26H38C40.2091 26 42 27.7909 42 30V30C42 32.2091 40.2091 34 38 34H34" stroke="currentColor" stroke-width="2"/>
<path vector-effect="non-scaling-stroke" d="M18 18C18 18 16 17 16 14C16 11 18 10 18 10" stroke="currentColor" stroke-width="2" stroke-linecap="round"/>
<path vector-effect="non-scaling-stroke" d="M24 6C24 6 26 7 26 10C26 13 24 14 24 14" stroke="currentColor" stroke-width="2" stroke-linecap="round"/>
</svg>
