<svg width="48" height="48" viewBox="0 0 48 48" fill="none" xmlns="http://www.w3.org/2000/svg">
<path vector-effect="non-scaling-stroke" fill-rule="evenodd" clip-rule="evenodd" d="M24 28C29.5228 28 34 23.5228 34 18C34 12.4772 29.5228 8 24 8C18.4772 8 14 12.4772 14 18C14 23.5228 18.4772 28 24 28Z" stroke="currentColor" stroke-width="2"/>
<path vector-effect="non-scaling-stroke" fill-rule="evenodd" clip-rule="evenodd" d="M18 38C23.5228 38 28 33.5228 28 28C28 22.4772 23.5228 18 18 18C12.4772 18 8 22.4772 8 28C8 33.5228 12.4772 38 18 38Z" stroke="currentColor" stroke-width="2"/>
<path vector-effect="non-scaling-stroke" fill-rule="evenodd" clip-rule="evenodd" d="M30 38C35.5228 38 40 33.5228 40 28C40 22.4772 35.5228 18 30 18C24.4772 18 20 22.4772 20 28C20 33.5228 24.4772 38 30 38Z" stroke="currentColor" stroke-width="2"/>
</svg>
