<svg width="48" height="48" viewBox="0 0 48 48" fill="none" xmlns="http://www.w3.org/2000/svg">
<path vector-effect="non-scaling-stroke" d="M16 6V42" stroke="currentColor" stroke-width="2" stroke-linecap="round"/>
<path vector-effect="non-scaling-stroke" fill-rule="evenodd" clip-rule="evenodd" d="M40 6V42H10C8.89543 42 8 41.1046 8 40V8C8 6.89543 8.89543 6 10 6H40Z" stroke="currentColor" stroke-width="2" stroke-linecap="round" stroke-linejoin="round"/>
<path vector-effect="non-scaling-stroke" d="M16 33.9999C16 29.9999 22.6667 30.6666 25.3333 27.9999C26.6667 26.6666 22.6667 26.6666 22.6667 19.9999C22.6667 15.5559 24.444 13.3333 28 13.3333C31.556 13.3333 33.3333 15.5559 33.3333 19.9999C33.3333 26.6666 29.3333 26.6666 30.6667 27.9999C33.3333 30.6666 40 29.9999 40 33.9999" stroke="currentColor" stroke-width="2" stroke-linecap="round"/>
</svg>
