<svg width="48" height="48" viewBox="0 0 48 48" fill="none" xmlns="http://www.w3.org/2000/svg">
<path vector-effect="non-scaling-stroke" d="M8 13C8 9.13401 11.134 6 15 6L33 6C36.866 6 40 9.13401 40 13V13C40 16.866 36.866 20 33 20L15 20C11.134 20 8 16.866 8 13V13Z" stroke="currentColor" stroke-width="2"/>
<path vector-effect="non-scaling-stroke" d="M40 35C40 38.866 36.866 42 33 42L15 42C11.134 42 8 38.866 8 35V35C8 31.134 11.134 28 15 28L33 28C36.866 28 40 31.134 40 35V35Z" stroke="currentColor" stroke-width="2"/>
<circle vector-effect="non-scaling-stroke" cx="33" cy="35" r="1" stroke="currentColor" stroke-width="2"/>
<circle vector-effect="non-scaling-stroke" cx="15" cy="13" r="1" stroke="currentColor" stroke-width="2"/>
</svg>
