<svg width="48" height="48" viewBox="0 0 48 48" fill="none" xmlns="http://www.w3.org/2000/svg">
<path vector-effect="non-scaling-stroke" fill-rule="evenodd" clip-rule="evenodd" d="M12 4V25C12 29.9706 16.0294 34 21 34H27C31.9706 34 36 29.9706 36 25V4H12Z" stroke="currentColor" stroke-width="2" stroke-linecap="round"/>
<path vector-effect="non-scaling-stroke" d="M14 42H34" stroke="currentColor" stroke-width="2" stroke-linecap="round"/>
<path vector-effect="non-scaling-stroke" d="M24 34V42" stroke="currentColor" stroke-width="2"/>
<path vector-effect="non-scaling-stroke" fill-rule="evenodd" clip-rule="evenodd" d="M12 10H10C6.68629 10 4 12.6863 4 16V16C4 19.3137 6.68629 22 10 22H12L12 10Z" stroke="currentColor" stroke-width="2" stroke-linecap="round"/>
<path vector-effect="non-scaling-stroke" fill-rule="evenodd" clip-rule="evenodd" d="M36 22H38C41.3137 22 44 19.3137 44 16V16C44 12.6863 41.3137 10 38 10H36V22Z" stroke="currentColor" stroke-width="2" stroke-linecap="round"/>
</svg>
