<svg width="48" height="48" viewBox="0 0 48 48" fill="none" xmlns="http://www.w3.org/2000/svg">
<rect vector-effect="non-scaling-stroke" x="4" y="4" width="40" height="40" stroke="currentColor" stroke-width="2" stroke-linejoin="round"/>
<path vector-effect="non-scaling-stroke" d="M22 14H34" stroke="currentColor" stroke-width="2" stroke-linecap="round"/>
<path vector-effect="non-scaling-stroke" fill-rule="evenodd" clip-rule="evenodd" d="M12 15C12.5523 15 13 14.5523 13 14C13 13.4477 12.5523 13 12 13C11.4477 13 11 13.4477 11 14C11 14.5523 11.4477 15 12 15Z" stroke="currentColor" stroke-width="2"/>
<path vector-effect="non-scaling-stroke" fill-rule="evenodd" clip-rule="evenodd" d="M12 25C12.5523 25 13 24.5523 13 24C13 23.4477 12.5523 23 12 23C11.4477 23 11 23.4477 11 24C11 24.5523 11.4477 25 12 25Z" stroke="currentColor" stroke-width="2"/>
<path vector-effect="non-scaling-stroke" fill-rule="evenodd" clip-rule="evenodd" d="M12 35C12.5523 35 13 34.5523 13 34C13 33.4477 12.5523 33 12 33C11.4477 33 11 33.4477 11 34C11 34.5523 11.4477 35 12 35Z" stroke="currentColor" stroke-width="2"/>
<path vector-effect="non-scaling-stroke" d="M22 24H34" stroke="currentColor" stroke-width="2" stroke-linecap="round"/>
<path vector-effect="non-scaling-stroke" d="M22 34H34" stroke="currentColor" stroke-width="2" stroke-linecap="round"/>
</svg>
