<svg width="48" height="48" viewBox="0 0 48 48" fill="none" xmlns="http://www.w3.org/2000/svg">
<path vector-effect="non-scaling-stroke" fill-rule="evenodd" clip-rule="evenodd" d="M24 14C25.1046 14 26 13.1046 26 12C26 10.8954 25.1046 10 24 10C22.8954 10 22 10.8954 22 12C22 13.1046 22.8954 14 24 14Z" fill="currentColor" stroke="currentColor" stroke-width="2"/>
<path vector-effect="non-scaling-stroke" fill-rule="evenodd" clip-rule="evenodd" d="M24 26C25.1046 26 26 25.1046 26 24C26 22.8954 25.1046 22 24 22C22.8954 22 22 22.8954 22 24C22 25.1046 22.8954 26 24 26Z" fill="currentColor" stroke="currentColor" stroke-width="2"/>
<path vector-effect="non-scaling-stroke" fill-rule="evenodd" clip-rule="evenodd" d="M24 38C25.1046 38 26 37.1046 26 36C26 34.8954 25.1046 34 24 34C22.8954 34 22 34.8954 22 36C22 37.1046 22.8954 38 24 38Z" fill="currentColor" stroke="currentColor" stroke-width="2"/>
</svg>
