<svg width="48" height="48" viewBox="0 0 48 48" fill="none" xmlns="http://www.w3.org/2000/svg">
<path vector-effect="non-scaling-stroke" fill-rule="evenodd" clip-rule="evenodd" d="M14 24C14 22.8954 13.1046 22 12 22C10.8954 22 10 22.8954 10 24C10 25.1046 10.8954 26 12 26C13.1046 26 14 25.1046 14 24Z" fill="currentColor" stroke="currentColor" stroke-width="2"/>
<path vector-effect="non-scaling-stroke" fill-rule="evenodd" clip-rule="evenodd" d="M26 24C26 22.8954 25.1046 22 24 22C22.8954 22 22 22.8954 22 24C22 25.1046 22.8954 26 24 26C25.1046 26 26 25.1046 26 24Z" fill="currentColor" stroke="currentColor" stroke-width="2"/>
<path vector-effect="non-scaling-stroke" fill-rule="evenodd" clip-rule="evenodd" d="M38 24C38 22.8954 37.1046 22 36 22C34.8954 22 34 22.8954 34 24C34 25.1046 34.8954 26 36 26C37.1046 26 38 25.1046 38 24Z" fill="currentColor" stroke="currentColor" stroke-width="2"/>
</svg>
