<svg width="48" height="48" viewBox="0 0 48 48" fill="none" xmlns="http://www.w3.org/2000/svg">
<path vector-effect="non-scaling-stroke" d="M43.2 24C43.2 24 42.4312 25.7273 40.8 27.9197M24 36.9412C20.1408 36.9412 16.9149 35.8742 14.2767 34.3529M24 36.9412C27.8592 36.9412 31.0851 35.8742 33.7233 34.3529M24 36.9412V44M4.8 24C4.8 24 5.64882 25.9071 7.45506 28.257M14.2767 34.3529L9.2 40.1176M14.2767 34.3529C11.2541 32.61 9.00299 30.2709 7.45506 28.257M33.7233 34.3529L37.6 40.1176M33.7233 34.3529C36.9163 32.5118 39.2483 30.0053 40.8 27.9197M7.45506 28.257L2 31.7647M40.8 27.9197L46 29.7647" stroke="currentColor" stroke-width="2" stroke-linecap="round"/>
</svg>
