<svg width="48" height="48" viewBox="0 0 48 48" fill="none" xmlns="http://www.w3.org/2000/svg">
<path vector-effect="non-scaling-stroke" d="M0 10C0 4.47715 4.47715 0 10 0H38C43.5229 0 48 4.47715 48 10V38C48 43.5229 43.5228 48 38 48H10C4.47715 48 0 43.5228 0 38V10Z" fill="currentColor"/>
<path vector-effect="non-scaling-stroke" d="M26.5016 38.1115V25.0542H30.106L30.5836 20.5546H26.5016L26.5077 18.3025C26.5077 17.1289 26.6192 16.5001 28.3048 16.5001H30.5581V12H26.9532C22.6232 12 21.0991 14.1828 21.0991 17.8536V20.5551H18.4V25.0547H21.0991V38.1115H26.5016Z" fill="#F7F5ED"/>
</svg>
