<svg width="48" height="48" viewBox="0 0 48 48" fill="none" xmlns="http://www.w3.org/2000/svg">
<path vector-effect="non-scaling-stroke" d="M0 10C0 4.47715 4.47715 0 10 0H38C43.5229 0 48 4.47715 48 10V38C48 43.5229 43.5228 48 38 48H10C4.47715 48 0 43.5228 0 38V10Z" fill="currentColor"/>
<path vector-effect="non-scaling-stroke" fill-rule="evenodd" clip-rule="evenodd" d="M14.8573 38.3644V33.2416C11.6489 30.8 9.60001 27.0814 9.60001 22.9169C9.60001 15.5622 15.99 9.6001 23.8726 9.6001C31.7556 9.6001 38.1451 15.5622 38.1451 22.9169C38.1451 30.2711 31.7556 36.2337 23.8726 36.2337C22.402 36.2337 20.9826 36.026 19.6474 35.6412L14.8573 38.3644ZM14.6513 27.4192L22.3485 19.2695L26.0428 23.0456L32.97 19.2695L25.3164 27.4192L21.6564 23.5758L14.6513 27.4192Z" fill="#F7F5ED"/>
</svg>
