<svg width="48" height="48" viewBox="0 0 48 48" fill="none" xmlns="http://www.w3.org/2000/svg">
<path vector-effect="non-scaling-stroke" d="M24 44C27.1637 44 29.7555 41.5514 29.9837 38.4459C32.3409 40.4805 35.905 40.3793 38.1421 38.1422C40.3792 35.9051 40.4804 32.3409 38.4458 29.9837C41.5513 29.7556 44 27.1638 44 24C44 20.8363 41.5514 18.2445 38.4459 18.0163C40.4805 15.6591 40.3793 12.095 38.1422 9.85787C35.9051 7.62077 32.3409 7.51953 29.9837 9.55416C29.7556 6.44866 27.1637 4 24 4C20.8363 4 18.2445 6.44861 18.0163 9.55407C15.6591 7.51948 12.095 7.62073 9.85788 9.85782C7.62077 12.0949 7.51953 15.6591 9.55416 18.0163C6.44866 18.2444 4 20.8363 4 24C4 27.1637 6.4486 29.7555 9.55406 29.9837C7.51948 32.3409 7.62074 35.905 9.85782 38.1421C12.0949 40.3792 15.6591 40.4804 18.0163 38.4458C18.2444 41.5513 20.8362 44 24 44Z" stroke="currentColor" stroke-width="2" stroke-linecap="round"/>
<path vector-effect="non-scaling-stroke" fill-rule="evenodd" clip-rule="evenodd" d="M24 28C21.7909 28 20 26.2091 20 24C20 21.7909 21.7909 20 24 20C26.2091 20 28 21.7909 28 24C28 26.2091 26.2091 28 24 28Z" stroke="currentColor" stroke-width="2"/>
</svg>
