<svg width="48" height="48" viewBox="0 0 48 48" fill="none" xmlns="http://www.w3.org/2000/svg">
<path vector-effect="non-scaling-stroke" d="M28 24C28 24 26.2091 22 24 22C21.7909 22 20 24 20 24" stroke="currentColor" stroke-width="2" stroke-linecap="round"/>
<path vector-effect="non-scaling-stroke" d="M42 24H44" stroke="currentColor" stroke-width="2" stroke-linecap="round"/>
<path vector-effect="non-scaling-stroke" d="M4 24H6" stroke="currentColor" stroke-width="2" stroke-linecap="round"/>
<path vector-effect="non-scaling-stroke" fill-rule="evenodd" clip-rule="evenodd" d="M14 30C17.3137 30 20 27.3137 20 24C20 20.6863 17.3137 18 14 18C10.6863 18 8 20.6863 8 24C8 27.3137 10.6863 30 14 30Z" stroke="currentColor" stroke-width="2"/>
<path vector-effect="non-scaling-stroke" fill-rule="evenodd" clip-rule="evenodd" d="M34 30C37.3137 30 40 27.3137 40 24C40 20.6863 37.3137 18 34 18C30.6863 18 28 20.6863 28 24C28 27.3137 30.6863 30 34 30Z" stroke="currentColor" stroke-width="2"/>
</svg>
