<svg width="48" height="48" viewBox="0 0 48 48" fill="none" xmlns="http://www.w3.org/2000/svg">
<path vector-effect="non-scaling-stroke" d="M42 23.9149C42 22.3404 41.8749 21.1915 41.6042 20H24V27.1063H34.3333C34.125 28.8723 33 31.5319 30.5 33.319L30.4649 33.5569L36.031 37.9607L36.4167 38C39.9583 34.6595 42 29.7446 42 23.9149Z" fill="#4285F4"/>
<path vector-effect="non-scaling-stroke" d="M24.6543 42C29.6878 42 33.9135 40.3379 37 37.4709L31.1171 32.9002C29.5429 34.0013 27.43 34.77 24.6543 34.77C19.7244 34.77 15.5401 31.5083 14.0485 27L13.8299 27.0186L8.07526 31.4854L8 31.6952C11.0657 37.8032 17.3628 42 24.6543 42Z" fill="#34A853"/>
<path vector-effect="non-scaling-stroke" d="M14 27.2708C13.6083 26.0989 13.3815 24.8432 13.3815 23.5459C13.3815 22.2484 13.6083 20.9928 13.9794 19.821L13.969 19.5714L8.16912 15L7.97935 15.0916C6.72166 17.6446 6 20.5116 6 23.5459C6 26.5802 6.72166 29.447 7.97935 32L14 27.2708Z" fill="#FBBC05"/>
<path vector-effect="non-scaling-stroke" d="M24.5833 12.2299C28.069 12.2299 30.4203 13.7465 31.761 15.0139L37 9.8615C33.7825 6.84904 29.5953 5 24.5833 5C17.3229 5 11.0526 9.19665 8 15.3046L14.0021 20C15.5079 15.4917 19.6743 12.2299 24.5833 12.2299Z" fill="#EB4335"/>
</svg>
