<svg width="48" height="48" viewBox="0 0 48 48" fill="none" xmlns="http://www.w3.org/2000/svg">
<path vector-effect="non-scaling-stroke" d="M14.6022 28.0022C16.1469 31.5156 19.9763 33.9999 23.9992 33.9999C28.005 33.9999 31.827 31.5091 33.3851 28.011" stroke="currentColor" stroke-width="2" stroke-linecap="round"/>
<path vector-effect="non-scaling-stroke" fill-rule="evenodd" clip-rule="evenodd" d="M17 19C17.5523 19 18 18.5523 18 18C18 17.4477 17.5523 17 17 17C16.4477 17 16 17.4477 16 18C16 18.5523 16.4477 19 17 19Z" stroke="currentColor" stroke-width="2"/>
<path vector-effect="non-scaling-stroke" fill-rule="evenodd" clip-rule="evenodd" d="M31 19C31.5523 19 32 18.5523 32 18C32 17.4477 31.5523 17 31 17C30.4477 17 30 17.4477 30 18C30 18.5523 30.4477 19 31 19Z" stroke="currentColor" stroke-width="2"/>
<path vector-effect="non-scaling-stroke" fill-rule="evenodd" clip-rule="evenodd" d="M24 44C35.0457 44 44 35.0457 44 24C44 12.9543 35.0457 4 24 4C12.9543 4 4 12.9543 4 24C4 35.0457 12.9543 44 24 44Z" stroke="currentColor" stroke-width="2"/>
</svg>
