<svg width="48" height="48" viewBox="0 0 48 48" fill="none" xmlns="http://www.w3.org/2000/svg">
<path vector-effect="non-scaling-stroke" d="M20.7071 24.7071C20.8946 24.5196 21 24.2652 21 24C21 23.7348 20.8946 23.4804 20.7071 23.2929L13.7635 16.3493C13.5759 16.1617 13.4706 15.9074 13.4706 15.6422V7C13.4706 5.89543 14.366 5 15.4706 5H32.5294C33.634 5 34.5294 5.89543 34.5294 7V15.6422C34.5294 15.9074 34.4241 16.1617 34.2365 16.3493L27.2929 23.2929C26.9024 23.6834 26.9024 24.3166 27.2929 24.7071L34.2365 31.6507C34.424 31.8383 34.5294 32.0926 34.5294 32.3578V41C34.5294 42.1046 33.634 43 32.5294 43H15.4706C14.366 43 13.4706 42.1046 13.4706 41V32.3578C13.4706 32.0926 13.5759 31.8383 13.7635 31.6507L20.7071 24.7071Z" stroke="currentColor" stroke-width="2" stroke-linecap="round" stroke-linejoin="round"/>
</svg>
