<svg width="48" height="48" viewBox="0 0 48 48" fill="none" xmlns="http://www.w3.org/2000/svg">
<path vector-effect="non-scaling-stroke" fill-rule="evenodd" clip-rule="evenodd" d="M24 44C35.0457 44 44 35.0457 44 24C44 12.9543 35.0457 4 24 4C12.9543 4 4 12.9543 4 24C4 35.0457 12.9543 44 24 44Z" stroke="currentColor" stroke-width="2"/>
<path vector-effect="non-scaling-stroke" fill-rule="evenodd" clip-rule="evenodd" d="M24 42C24 42 32 35.4545 32 24C32 12.5455 24 6 24 6C24 6 16 12.5455 16 24C16 35.4545 24 42 24 42Z" stroke="currentColor" stroke-width="2"/>
<path vector-effect="non-scaling-stroke" d="M5 18H43" stroke="currentColor" stroke-width="2" stroke-linecap="round"/>
<path vector-effect="non-scaling-stroke" d="M5 30H43" stroke="currentColor" stroke-width="2" stroke-linecap="round"/>
</svg>
