<svg width="48" height="48" viewBox="0 0 48 48" fill="none" xmlns="http://www.w3.org/2000/svg">
<path vector-effect="non-scaling-stroke" d="M0 10C0 4.47715 4.47715 0 10 0H38C43.5229 0 48 4.47715 48 10V38C48 43.5229 43.5228 48 38 48H10C4.47715 48 0 43.5228 0 38V10Z" fill="currentColor"/>
<path vector-effect="non-scaling-stroke" fill-rule="evenodd" clip-rule="evenodd" d="M17.3188 14.8227C17.2835 13.2204 16.1377 12 14.277 12C12.4164 12 11.2 13.2204 11.2 14.8227C11.2 16.3918 12.3805 17.6473 14.2064 17.6473H14.2412C16.1377 17.6473 17.3188 16.3918 17.3188 14.8227ZM16.9606 19.8778H11.5216V36.2196H16.9606V19.8778ZM30.3132 19.4941C33.8922 19.4941 36.5754 21.8303 36.5754 26.8497L36.5752 36.2196H31.1365V27.4767C31.1365 25.2807 30.3494 23.7822 28.3805 23.7822C26.8779 23.7822 25.9829 24.7924 25.5898 25.7681C25.446 26.1178 25.4107 26.605 25.4107 27.0934V36.22H19.9711C19.9711 36.22 20.0428 21.4117 19.9711 19.8783H25.4107V22.1929C26.1326 21.0802 27.4254 19.4941 30.3132 19.4941Z" fill="#F7F5ED"/>
</svg>
