<svg width="115" height="48" viewBox="0 0 115 48" fill="none"
    xmlns="http://www.w3.org/2000/svg">
    <path vector-effect="non-scaling-stroke" fill="currentColor" fill-rule="evenodd" clip-rule="evenodd" d="M105.188 0H9.08691C4.06835 0 0 4.02944 0 9V39C0 43.9706 4.06835 48 9.08691 48H105.188C110.206 48 114.275 43.9706 114.275 39V9C114.275 4.02944 110.206 0 105.188 0ZM3.30433 9C3.30433 5.83692 5.89328 3.27273 9.08691 3.27273H105.188C108.381 3.27273 110.97 5.83691 110.97 9V39C110.97 42.1631 108.381 44.7273 105.188 44.7273H9.08691C5.89328 44.7273 3.30433 42.1631 3.30433 39V9ZM52.996 18.4096C54.0398 17.2096 55.5507 16.6369 57.3911 16.6369C61.2095 16.6369 63.6268 19.4733 63.6268 24.6823C63.6268 29.8642 60.9897 32.7278 56.6495 32.7278C51.8972 32.7278 49.5897 29.8642 49.5897 24.6823V14.8336H46.9734L47.7975 11.8336H49.5897H49.7204H52.996V18.4096ZM52.996 24.6823C52.996 27.9823 54.2046 29.5642 56.5945 29.5642C58.9844 29.5642 60.1931 27.9823 60.1931 24.6823C60.1931 21.3823 58.9844 19.8005 56.5671 19.8005C54.1497 19.8005 52.996 21.3005 52.996 23.7823V24.6823ZM41.537 16.6369C37.3341 16.6369 34.9717 18.9551 34.9717 23.3187V29.4005H33.0488L32.2247 32.4551H42.9379V29.4005H38.3779V23.3187C38.3779 21.1096 39.5866 19.8005 41.4271 19.8005C42.7456 19.8005 43.6521 20.4551 44.0917 21.6278L46.976 20.1278C46.1519 18.0005 44.5037 16.6369 41.537 16.6369ZM26.3161 16.9096L26.3161 26.046C26.3161 28.2551 25.1074 29.5642 23.2395 29.5642C21.3715 29.5642 20.1628 28.2551 20.1628 26.046V16.9096H16.7566V26.046C16.7566 30.4096 19.119 32.7278 23.2395 32.7278C27.3599 32.7278 29.7223 30.4096 29.7223 26.046V19.9096H32.4144L31.5903 16.9096H29.7223H29.6674H26.3161ZM76.8302 16.9096V25.746C76.8302 27.9551 75.7039 29.1823 73.7535 29.1823C71.8581 29.1823 70.6769 28.0096 70.6769 26.0187V16.9096H67.2706V25.9642C67.2706 30.1096 69.1935 32.346 72.7097 32.346C74.6051 32.346 76.1159 31.6914 77.1049 30.4096V32.4551C77.1049 35.2369 75.7588 36.0005 73.3689 36.0005C71.7757 36.0005 70.4297 35.4278 69.1935 34.2278L67.2432 36.546C68.8639 38.2369 71.2538 38.5107 73.5338 38.5107C77.7092 38.5107 80.2364 36.9278 80.2364 32.4551V16.9096H76.8302ZM98.3051 24.6823C98.3051 29.8642 95.7779 32.7278 91.163 32.7278C86.548 32.7278 84.0208 29.8642 84.0208 24.6823C84.0208 19.4733 86.548 16.6369 91.163 16.6369C95.7779 16.6369 98.3051 19.4733 98.3051 24.6823ZM87.4546 24.6823C87.4546 27.9823 88.6357 29.5642 91.163 29.5642C93.6902 29.5642 94.8714 27.9823 94.8714 24.6823C94.8714 21.3823 93.6902 19.8005 91.163 19.8005C88.6357 19.8005 87.4546 21.3823 87.4546 24.6823Z" />
</svg>
