<svg width="144" height="144" viewBox="0 0 144 144" fill="none" xmlns="http://www.w3.org/2000/svg">
<path vector-effect="non-scaling-stroke" fill-rule="evenodd" clip-rule="evenodd" d="M116.739 0H27.2607C12.205 0 0 12.0883 0 27V117C0 131.912 12.205 144 27.2607 144H116.739C131.795 144 144 131.912 144 117V27C144 12.0883 131.795 0 116.739 0ZM9.91299 27C9.91299 17.5107 17.6798 9.81818 27.2607 9.81818H116.739C126.32 9.81818 134.087 17.5107 134.087 27V117C134.087 126.489 126.32 134.182 116.739 134.182H27.2607C17.6798 134.182 9.91299 126.489 9.91299 117V27ZM79.4727 51L79.4727 78.4091C79.4727 85.0364 75.8727 88.9636 70.3091 88.9636C64.7455 88.9636 61.1455 85.0364 61.1455 78.4091V51H51V78.4091C51 91.5 58.0364 98.4545 70.3091 98.4545C82.5818 98.4545 89.6182 91.5 89.6182 78.4091V60H97.6364L95.1818 51H89.6182H89.4546H79.4727Z" fill="currentColor" />
</svg>
