<svg width="48" height="48" viewBox="0 0 48 48" fill="none" xmlns="http://www.w3.org/2000/svg">
<path vector-effect="non-scaling-stroke" d="M0 10C0 4.47715 4.47715 0 10 0H38C43.5229 0 48 4.47715 48 10V38C48 43.5229 43.5228 48 38 48H10C4.47715 48 0 43.5228 0 38V10Z" fill="currentColor"/>
<path vector-effect="non-scaling-stroke" fill-rule="evenodd" clip-rule="evenodd" d="M35.8544 17.2799C35.8544 17.2799 26.2995 22.6529 24.3344 22.6529C22.4595 22.6529 12.8 17.1753 12.8 17.1753V16.3199C12.8 15.2601 13.6601 14.3999 14.7219 14.3999H33.9469C35.0096 14.3999 35.8697 15.2601 35.8697 16.3199L35.8544 17.2799ZM12.8153 20.1599C12.8144 20.1599 22.4595 25.2929 24.3344 25.2929C26.3897 25.2929 35.8544 20.1599 35.8544 20.1599L35.8697 31.6799C35.8697 32.7397 35.0096 33.5999 33.9469 33.5999H14.7219C13.6611 33.5999 12.8 32.7397 12.8 31.6799L12.8153 20.1599Z" fill="#F7F5ED"/>
</svg>
