<svg width="48" height="48" viewBox="0 0 48 48" fill="none" xmlns="http://www.w3.org/2000/svg">
<path vector-effect="non-scaling-stroke" d="M16 36V12L40 6V32" stroke="currentColor" stroke-width="2" stroke-linejoin="round"/>
<path vector-effect="non-scaling-stroke" fill-rule="evenodd" clip-rule="evenodd" d="M11.8942 41.0209C8.95884 42.0893 6.00189 41.369 5.28965 39.4121C4.5774 37.4552 6.37956 35.0027 9.31489 33.9344C12.2502 32.866 15.2072 33.5863 15.9194 35.5432C16.6317 37.5001 14.8295 39.9525 11.8942 41.0209Z" stroke="currentColor" stroke-width="2"/>
<path vector-effect="non-scaling-stroke" fill-rule="evenodd" clip-rule="evenodd" d="M35.8942 37.0209C32.9588 38.0893 30.0019 37.369 29.2896 35.4121C28.5774 33.4552 30.3796 31.0027 33.3149 29.9344C36.2502 28.866 39.2072 29.5863 39.9194 31.5432C40.6317 33.5001 38.8295 35.9525 35.8942 37.0209Z" stroke="currentColor" stroke-width="2"/>
</svg>
