<svg width="48" height="48" viewBox="0 0 48 48" fill="none" xmlns="http://www.w3.org/2000/svg">
<path vector-effect="non-scaling-stroke" d="M40 28V34C40 38.4183 36.4183 42 32 42H20.0433C17.5009 42 15.1099 40.7915 13.6021 38.7445L6.69085 29.3616C5.63018 27.9216 5.89557 25.9011 7.29212 24.7839C8.71513 23.6454 10.7667 23.7598 12.0545 25.0492L16 29V26H16.0079L16 22L16.0349 13C16.0349 11.3431 17.3781 10 19.0349 10C20.6918 10 22.0349 11.3431 22.0349 13V22V9C22.0349 7.34315 23.3781 6 25.0349 6C26.6918 6 28.0349 7.34315 28.0349 9V22V11C28.0349 9.34315 29.3781 8 31.0349 8C32.6918 8 34.0349 9.34315 34.0349 11V22V15C34.0349 13.3431 35.3781 12 37.0349 12C38.6918 12 40.0349 13.3431 40.0349 15L40.0118 28H40Z" stroke="currentColor" stroke-width="2" stroke-linecap="square" stroke-linejoin="round"/>
</svg>
