<svg width="48" height="48" viewBox="0 0 48 48" fill="none" xmlns="http://www.w3.org/2000/svg">
<path vector-effect="non-scaling-stroke" d="M25.4816 36.8072L31.2031 31.0857C31.5458 30.743 32.0848 30.6953 32.4823 30.9726L41.25 37.0876C41.7606 37.4437 41.8252 38.1747 41.3851 38.6149L38.6312 41.3688C37.9209 42.0791 36.9025 42.3852 35.9351 42.1151C32.4215 41.134 23.6358 38.1183 16.5235 31.0059C9.41117 23.8936 6.39546 15.108 5.41436 11.5944C5.14422 10.6269 5.45034 9.60852 6.1606 8.89826L8.91451 6.14435C9.35468 5.70418 10.0857 5.76882 10.4418 6.27941L16.5569 15.0472C16.8341 15.4446 16.7864 15.9837 16.4438 16.3263L10.7223 22.0478" stroke="currentColor" stroke-width="2" stroke-linecap="round"/>
</svg>
