<svg xmlns="http://www.w3.org/2000/svg" width="34" height="34" preserveAspectRatio="xMidYMid">
  <!-- not the final icon from our designers -->
  <path vector-effect="non-scaling-stroke" d="M0 17c0 6.96 4.186 12.941 10.176 15.57-.048-1.187-.009-2.612.296-3.903.327-1.38 2.187-9.264 2.187-9.264s-.543-1.085-.543-2.69c0-2.519 1.46-4.4 3.279-4.4 1.546 0 2.293 1.161 2.293 2.552 0 1.555-.991 3.88-1.501 6.033-.426 1.803.904 3.274 2.683 3.274 3.221 0 5.39-4.137 5.39-9.038 0-3.726-2.51-6.515-7.073-6.515-5.157 0-8.37 3.846-8.37 8.142 0 1.48.437 2.525 1.12 3.334.315.371.359.52.245.947-.081.313-.269 1.066-.346 1.365-.113.43-.462.584-.851.425-2.376-.97-3.482-3.57-3.482-6.495 0-4.829 4.073-10.619 12.15-10.619 6.49 0 10.763 4.697 10.763 9.738 0 6.669-3.708 11.651-9.173 11.651-1.836 0-3.562-.992-4.153-2.119 0 0-.987 3.917-1.196 4.673-.36 1.31-1.066 2.62-1.711 3.642 1.529.451 3.144.697 4.818.697C26.388 34 34 26.389 34 17S26.388 0 17 0 0 7.611 0 17z" fill="currentColor"/>
</svg>
