<svg width="48" height="48" viewBox="0 0 48 48" fill="none" xmlns="http://www.w3.org/2000/svg">
<path vector-effect="non-scaling-stroke" d="M40 35.7128C35.1354 38.5214 29.6172 40 24 40C18.3828 40 12.8646 38.5214 8 35.7128L24 8L40 35.7128Z" stroke="currentColor" stroke-width="2"/>
<path vector-effect="non-scaling-stroke" d="M40 35.7128C35.1354 38.5214 29.6172 40 24 40C18.3828 40 12.8646 38.5214 8 35.7128L24 8L40 35.7128Z" stroke="currentColor" stroke-width="2"/>
<path vector-effect="non-scaling-stroke" d="M10.9978 30.5205C14.8226 32.7335 19.2634 34.0001 24 34.0001C28.7366 34.0001 33.1774 32.7335 37.0021 30.5205" stroke="currentColor" stroke-width="2"/>
<path vector-effect="non-scaling-stroke" fill-rule="evenodd" clip-rule="evenodd" d="M24 21C24.5523 21 25 20.5523 25 20C25 19.4477 24.5523 19 24 19C23.4477 19 23 19.4477 23 20C23 20.5523 23.4477 21 24 21Z" stroke="currentColor" stroke-width="2"/>
<path vector-effect="non-scaling-stroke" fill-rule="evenodd" clip-rule="evenodd" d="M26 27C26.5523 27 27 26.5523 27 26C27 25.4477 26.5523 25 26 25C25.4477 25 25 25.4477 25 26C25 26.5523 25.4477 27 26 27Z" stroke="currentColor" stroke-width="2"/>
<path vector-effect="non-scaling-stroke" fill-rule="evenodd" clip-rule="evenodd" d="M20 29C20.5523 29 21 28.5523 21 28C21 27.4477 20.5523 27 20 27C19.4477 27 19 27.4477 19 28C19 28.5523 19.4477 29 20 29Z" stroke="currentColor" stroke-width="2"/>
</svg>
