<svg width="48" height="48" viewBox="0 0 48 48" fill="none" xmlns="http://www.w3.org/2000/svg">
<path vector-effect="non-scaling-stroke" d="M8.5 12.9446C2.51178 18.9328 2.51178 28.6416 8.5 34.6299" stroke="currentColor" stroke-width="2" stroke-linecap="round"/>
<path vector-effect="non-scaling-stroke" d="M15.2563 17.0308C11.5249 20.7623 11.5249 26.8121 15.2563 30.5435" stroke="currentColor" stroke-width="2" stroke-linecap="round"/>
<path vector-effect="non-scaling-stroke" d="M39.2401 12.9446C45.2283 18.9328 45.2283 28.6416 39.2401 34.6299" stroke="currentColor" stroke-width="2" stroke-linecap="round"/>
<path vector-effect="non-scaling-stroke" d="M32.4838 17.0308C36.2152 20.7623 36.2152 26.8121 32.4838 30.5435" stroke="currentColor" stroke-width="2" stroke-linecap="round"/>
<path vector-effect="non-scaling-stroke" fill-rule="evenodd" clip-rule="evenodd" d="M24 28C26.2091 28 28 26.2091 28 24C28 21.7909 26.2091 20 24 20C21.7909 20 20 21.7909 20 24C20 26.2091 21.7909 28 24 28Z" stroke="currentColor" stroke-width="2"/>
</svg>
