<svg width="48" height="48" viewBox="0 0 48 48" fill="none" xmlns="http://www.w3.org/2000/svg">
<rect vector-effect="non-scaling-stroke" x="20" y="6" width="14" height="14" transform="rotate(90 20 6)" stroke="currentColor" stroke-width="2" stroke-linecap="round"/>
<rect vector-effect="non-scaling-stroke" width="2" height="2" transform="matrix(-1 0 0 1 14 12)" stroke="currentColor" stroke-width="2" stroke-linecap="round"/>
<rect vector-effect="non-scaling-stroke" x="20" y="28" width="14" height="14" transform="rotate(90 20 28)" stroke="currentColor" stroke-width="2" stroke-linecap="round"/>
<rect vector-effect="non-scaling-stroke" x="12" y="34" width="2" height="2" stroke="currentColor" stroke-width="2" stroke-linecap="round"/>
<path vector-effect="non-scaling-stroke" d="M28 40H30V42H28V40Z" stroke="currentColor" stroke-width="3" stroke-linecap="round"/>
<rect vector-effect="non-scaling-stroke" x="34" y="34" width="2" height="2" stroke="currentColor" stroke-width="2" stroke-linecap="round"/>
<rect vector-effect="non-scaling-stroke" x="28" y="28" width="2" height="2" stroke="currentColor" stroke-width="2" stroke-linecap="round"/>
<rect vector-effect="non-scaling-stroke" x="40" y="34" width="2" height="2" stroke="currentColor" stroke-width="2" stroke-linecap="round"/>
<rect vector-effect="non-scaling-stroke" x="40" y="28" width="2" height="2" stroke="currentColor" stroke-width="2" stroke-linecap="round"/>
<rect vector-effect="non-scaling-stroke" x="40" y="40" width="2" height="2" stroke="currentColor" stroke-width="3" stroke-linecap="round"/>
<rect vector-effect="non-scaling-stroke" x="42" y="6" width="14" height="14" transform="rotate(90 42 6)" stroke="currentColor" stroke-width="2" stroke-linecap="round"/>
<rect vector-effect="non-scaling-stroke" x="34" y="12" width="2" height="2" stroke="currentColor" stroke-width="2" stroke-linecap="round"/>
</svg>
