<svg width="48" height="48" viewBox="0 0 48 48" fill="none" xmlns="http://www.w3.org/2000/svg">
<path vector-effect="non-scaling-stroke" d="M25.5052 11.8484C24.4117 12.5722 23.358 13.4115 22.3847 14.3848C20.9509 15.8186 20.9894 15.8964 19.7072 17.3641M25.5052 11.8484C32.356 7.31371 40.7695 7.31371 40.7695 7.31371C40.7695 7.31371 40.7695 15.7272 36.2349 22.578M25.5052 11.8484L36.2349 22.578M36.2349 22.578C35.5111 23.6715 34.6717 24.7252 33.6985 25.6985C32.2646 27.1324 32.1868 27.0939 30.7192 28.376M12.2305 26.8579C11.4856 27.9051 11.071 28.5269 11.071 28.5269L19.5563 37.0122C19.5563 37.0122 20.1781 36.5977 21.2253 35.8528M12.2305 26.8579L5.41418 20.0416L16.7279 14.3848L19.7072 17.3641M12.2305 26.8579C13.6793 24.8211 16.378 21.1748 19.7072 17.3641M21.2253 35.8528L28.0416 42.669L33.6985 31.3553L30.7192 28.376M21.2253 35.8528C23.2622 34.4039 26.9084 31.7053 30.7192 28.376" stroke="currentColor" stroke-width="2"/>
<path vector-effect="non-scaling-stroke" d="M10 37.9999C10.7006 35.165 11.9999 34.0001 13 35C14 35.9999 12.835 37.2994 10 37.9999Z" stroke="currentColor" stroke-width="2"/>
</svg>
