<svg width="48" height="48" viewBox="0 0 48 48" fill="none" xmlns="http://www.w3.org/2000/svg">
<path vector-effect="non-scaling-stroke" d="M21.4415 6C20.5807 6 19.8164 6.55086 19.5442 7.36754L18.2573 11.2282C17.3926 11.6177 16.5746 12.0923 15.8139 12.6415L11.8238 11.825C10.9805 11.6524 10.1213 12.0388 9.69084 12.7843L7.13235 17.2158C6.70192 17.9613 6.79685 18.8986 7.368 19.5427L10.0702 22.59C10.0238 23.0537 10 23.5241 10 24C10 24.476 10.0238 24.9464 10.0702 25.4101L7.368 28.4574C6.79684 29.1015 6.70192 30.0388 7.13235 30.7843L9.69083 35.2158C10.1213 35.9613 10.9805 36.3477 11.8238 36.1752L15.814 35.3586C16.5747 35.9078 17.3926 36.3824 18.2573 36.7718L19.5442 40.6325C19.8164 41.4491 20.5807 42 21.4415 42H26.5585C27.4194 42 28.1837 41.4491 28.4559 40.6325L29.7428 36.7718C30.6074 36.3824 31.4254 35.9078 32.186 35.3586L36.1763 36.1752C37.0196 36.3477 37.8788 35.9613 38.3093 35.2158L40.8677 30.7843C41.2982 30.0388 41.2033 29.1015 40.6321 28.4574L37.9299 25.4101C37.9763 24.9464 38 24.476 38 24C38 23.5241 37.9763 23.0537 37.9299 22.59L40.6321 19.5427C41.2033 18.8986 41.2982 17.9613 40.8677 17.2158L38.3093 12.7843C37.8788 12.0388 37.0196 11.6524 36.1763 11.8249L32.1862 12.6415C31.4255 12.0923 30.6075 11.6177 29.7428 11.2282L28.4559 7.36754C28.1837 6.55086 27.4194 6 26.5585 6H21.4415Z" stroke="currentColor" stroke-width="2"/>
<path vector-effect="non-scaling-stroke" fill-rule="evenodd" clip-rule="evenodd" d="M24 26C25.1046 26 26 25.1046 26 24C26 22.8954 25.1046 22 24 22C22.8954 22 22 22.8954 22 24C22 25.1046 22.8954 26 24 26Z" stroke="currentColor" stroke-width="2"/>
</svg>
