<svg width="48" height="48" viewBox="0 0 48 48" fill="none" xmlns="http://www.w3.org/2000/svg">
<path vector-effect="non-scaling-stroke" fill-rule="evenodd" clip-rule="evenodd" d="M24 28C25.1046 28 26 27.1046 26 26C26 24.8954 25.1046 24 24 24C22.8954 24 22 24.8954 22 26C22 27.1046 22.8954 28 24 28Z" fill="currentColor"/>
<path vector-effect="non-scaling-stroke" d="M40.3636 38C42.81 34.7514 44 30.8709 44 26.7059C44 15.2689 35.0457 6 24 6C12.9543 6 4 15.2689 4 26.7059C4 30.8104 5.15572 34.6387 7.63636 38" stroke="currentColor" stroke-width="2" stroke-linecap="round"/>
<path vector-effect="non-scaling-stroke" d="M32 32C33.405 30.3757 34 28.4354 34 26C34 20.6345 29.5228 16 24 16C18.4772 16 14 20.6345 14 26C14 28.4052 14.5779 30.3193 16 32" stroke="currentColor" stroke-width="2" stroke-linecap="round"/>
</svg>
