<svg width="48" height="48" viewBox="0 0 48 48" fill="none" xmlns="http://www.w3.org/2000/svg">
<path vector-effect="non-scaling-stroke" d="M21.0896 24.644C20.2921 23.1941 18.7499 22.2116 16.9783 22.2116C16.1607 22.2116 15.392 22.4208 14.7227 22.7887M21.0896 29.1571C20.2921 30.607 18.7499 31.5895 16.9783 31.5895C15.7954 31.5895 14.7149 31.1515 13.8899 30.4289M13.8899 30.4289C12.9088 29.5695 12.2893 28.3073 12.2893 26.9005C12.2893 25.1285 13.2723 23.586 14.7227 22.7887M13.8899 30.4289H11.6186C11.3534 30.4289 11.099 30.5343 10.9115 30.7218L8.71889 32.9144C8.32837 33.3049 7.6952 33.3049 7.30468 32.9144L3.04549 28.6552C2.65496 28.2647 2.65496 27.6315 3.04549 27.241L5.45623 24.8303C5.50594 24.7806 5.55026 24.7258 5.58848 24.6667L9.77898 18.1961M9.77898 18.1961C10.128 15.5084 12.2893 11.7171 15.3582 10.4604M9.77898 18.1961L14.7227 22.7887M11.5813 19.8704C12.408 18.0326 17.1384 14.1744 19.6516 14.2303M13.1111 21.2916C14.7052 19.4764 19.114 17.8395 22.828 18.8727" stroke="currentColor" stroke-width="2" stroke-linecap="round" stroke-linejoin="round"/>
<path vector-effect="non-scaling-stroke" d="M26.9104 25.8174C27.7079 27.2673 29.2501 28.2499 31.0217 28.2499C31.8393 28.2499 32.608 28.0406 33.2773 27.6727M26.9104 21.3043C27.7079 19.8544 29.2501 18.8719 31.0217 18.8719C32.2046 18.8719 33.2851 19.3099 34.1101 20.0325M34.1101 20.0325C35.0912 20.892 35.7107 22.1541 35.7107 23.5609C35.7107 25.3329 34.7277 26.8754 33.2773 27.6727M34.1101 20.0325L36.3814 20.0325C36.6466 20.0325 36.901 19.9272 37.0885 19.7396L39.2811 17.547C39.6716 17.1565 40.3048 17.1565 40.6953 17.547L44.9545 21.8062C45.345 22.1967 45.345 22.8299 44.9545 23.2204L42.5438 25.6312C42.4941 25.6809 42.4497 25.7357 42.4115 25.7947L38.221 32.2653M38.221 32.2653C37.872 34.953 35.7107 38.7444 32.6418 40.001M38.221 32.2653L33.2773 27.6727M36.4187 30.591C35.592 32.4288 30.8616 36.287 28.3484 36.2312M34.8889 29.1699C33.2948 30.985 28.886 32.6219 25.172 31.5887" stroke="currentColor" stroke-width="2" stroke-linecap="round" stroke-linejoin="round"/>
</svg>
