<svg width="48" height="48" viewBox="0 0 48 48" fill="none" xmlns="http://www.w3.org/2000/svg">
<path vector-effect="non-scaling-stroke" d="M0 10C0 4.47715 4.47715 0 10 0H38C43.5229 0 48 4.47715 48 10V38C48 43.5229 43.5228 48 38 48H10C4.47715 48 0 43.5228 0 38V10Z" fill="currentColor"/>
<path vector-effect="non-scaling-stroke" fill-rule="evenodd" clip-rule="evenodd" d="M32.2019 18.6706L29.9084 19.4169L31.4651 24.2148L33.7585 23.4683C34.9541 23.0793 36.2384 23.7346 36.6268 24.9319C37.0153 26.1295 36.3612 27.4155 35.1653 27.8046L32.872 28.5508L33.641 30.9211C34.0265 32.1094 33.29 33.3944 32.0819 33.7427C30.9236 34.0766 29.7169 33.4479 29.3127 32.3293L28.5435 29.9592L23.7512 31.5186L24.5202 33.8888C24.9058 35.0773 24.1693 36.3623 22.9611 36.7104C21.8028 37.0445 20.5961 36.4158 20.1919 35.2972L19.4226 32.927L17.0543 33.6976C15.8678 34.0837 14.5846 33.3461 14.2367 32.1362C13.9034 30.9763 14.5311 29.7678 15.6482 29.3632L18.0159 28.5926L16.4583 23.7933L14.0909 24.5637C12.9041 24.9498 11.6209 24.2122 11.2733 23.0023C10.9397 21.8423 11.5675 20.6339 12.6845 20.2293L15.0516 19.4588L14.3057 17.1607C13.917 15.9631 14.5714 14.677 15.7672 14.288C16.9628 13.899 18.247 14.5543 18.6357 15.7516L19.3812 18.0495L24.1721 16.4901L23.4265 14.1927C23.0378 12.9954 23.6921 11.7093 24.888 11.3203C26.0835 10.931 27.3678 11.5864 27.7563 12.7839L28.5015 15.0809L30.7949 14.3344C31.9907 13.9453 33.2749 14.6007 33.6634 15.798C34.0519 16.9955 33.3975 18.2816 32.2019 18.6706ZM27.1364 25.6238L25.5791 20.8256L20.7877 22.3846L22.3447 27.1835L27.1364 25.6238Z" fill="#F7F5ED"/>
</svg>
