<svg width="48" height="48" viewBox="0 0 48 48" fill="none" xmlns="http://www.w3.org/2000/svg">
<path vector-effect="non-scaling-stroke" d="M23.6666 16C28.6362 16 32.7591 19.6251 33.5353 24.3751C36.426 24.7218 38.6666 27.1826 38.6666 30.1667C38.6666 33.3883 36.055 36 32.8333 36H12.8333C8.69118 36 5.33331 32.6421 5.33331 28.5C5.33331 24.3579 8.69118 21 12.8333 21C13.5325 21 14.2093 21.0957 14.8513 21.2746C16.5379 18.1348 19.853 16 23.6666 16Z" stroke="currentColor" stroke-width="2"/>
<path vector-effect="non-scaling-stroke" d="M36.3041 25.6632C37.7849 25.2186 39.0851 24.3565 40.068 23.2136C41.2722 21.8134 42 19.9917 42 18C42 13.5817 38.4183 10 34 10C31.9933 10 30.1591 10.7389 28.7547 11.9594C27.5343 13.0201 26.6384 14.4445 26.2359 16.0639" stroke="currentColor" stroke-width="2"/>
</svg>
