<svg width="48" height="50" viewBox="0 0 48 50" fill="none" xmlns="http://www.w3.org/2000/svg">
<path vector-effect="non-scaling-stroke" d="M42 26H36C34.8954 26 34 26.8954 34 28V36C34 37.1046 34.8954 38 36 38H40C41.1046 38 42 37.1046 42 36V26C42 16.0589 33.9411 8 24 8C14.0589 8 6 16.0589 6 26V36C6 37.1046 6.89543 38 8 38H12C13.1046 38 14 37.1046 14 36V28C14 26.8954 13.1046 26 12 26H6" stroke="currentColor" stroke-width="2"/>
<path vector-effect="non-scaling-stroke" d="M42 30V38C42 38 42 44 38 44C34 44 28 44 28 44" stroke="currentColor" stroke-width="2" stroke-linejoin="round"/>
</svg>
