<svg width="48" height="48" viewBox="0 0 48 48" fill="none" xmlns="http://www.w3.org/2000/svg">
<path vector-effect="non-scaling-stroke" fill-rule="evenodd" clip-rule="evenodd" d="M34 20C36.2091 20 38 21.7909 38 24C38 26.2091 36.2091 28 34 28C31.7909 28 30 26.2091 30 24C30 21.7909 31.7909 20 34 20Z" stroke="currentColor" stroke-width="2"/>
<path vector-effect="non-scaling-stroke" d="M34 14C39.5228 14 44 18.4772 44 24V24C44 29.5228 39.5229 34 34 34L16 34C10.4772 34 6 29.5229 6 24V24C6 18.4772 10.4772 14 16 14L34 14Z" stroke="currentColor" stroke-width="2"/>
</svg>
