<svg width="48" height="48" viewBox="0 0 48 48" fill="none" xmlns="http://www.w3.org/2000/svg">
<path vector-effect="non-scaling-stroke" fill-rule="evenodd" clip-rule="evenodd" d="M14 28C11.7909 28 10 26.2091 10 24C10 21.7909 11.7909 20 14 20C16.2091 20 18 21.7909 18 24C18 26.2091 16.2091 28 14 28Z" stroke="currentColor" stroke-width="2"/>
<path vector-effect="non-scaling-stroke" d="M14 34C8.47715 34 4 29.5228 4 24V24C4 18.4772 8.47715 14 14 14L32 14C37.5228 14 42 18.4772 42 24V24C42 29.5228 37.5228 34 32 34L14 34Z" stroke="currentColor" stroke-width="2"/>
</svg>
