<svg width="48" height="48" viewBox="0 0 48 48" fill="none" xmlns="http://www.w3.org/2000/svg">
<path vector-effect="non-scaling-stroke" fill-rule="evenodd" clip-rule="evenodd" d="M20 26C21.1046 26 22 25.1046 22 24C22 22.8954 21.1046 22 20 22C18.8954 22 18 22.8954 18 24C18 25.1046 18.8954 26 20 26Z" stroke="currentColor" stroke-width="2"/>
<path vector-effect="non-scaling-stroke" fill-rule="evenodd" clip-rule="evenodd" d="M16.4142 36C16.149 36 15.8946 35.8946 15.7071 35.7071L4 24L15.7071 12.2929C15.8946 12.1054 16.149 12 16.4142 12H40C42.2091 12 44 13.7909 44 16V32C44 34.2091 42.2091 36 40 36H16.4142Z" stroke="currentColor" stroke-width="2" stroke-linecap="round"/>
</svg>
