<svg width="48" height="48" viewBox="0 0 48 48" fill="none" xmlns="http://www.w3.org/2000/svg">
<path vector-effect="non-scaling-stroke" d="M4 16C4 14.1474 4.41982 12.3928 5.1695 10.8263L13.8995 19.5563L19.5563 13.8994L10.8264 5.16947C12.3929 4.4198 14.1474 4 16 4C22.6274 4 28 9.37258 28 16C28 17.7608 27.6207 19.4331 26.9395 20.9395L42.5858 36.5858C43.3668 37.3669 43.3668 38.6332 42.5858 39.4143L38.4142 43.5858C37.6331 44.3669 36.3668 44.3669 35.5858 43.5858L19.4858 27.4859C18.3827 27.8202 17.2123 28 16 28C9.37258 28 4 22.6274 4 16Z" stroke="currentColor" stroke-width="2" stroke-linejoin="round"/>
</svg>
