<svg width="48" height="48" viewBox="0 0 48 48" fill="none" xmlns="http://www.w3.org/2000/svg">
<path vector-effect="non-scaling-stroke" d="M16 25L21 30L32 19" stroke="currentColor" stroke-width="2" stroke-linecap="round"/>
<path vector-effect="non-scaling-stroke" d="M24 44C26.8219 44 29.1889 42.0519 29.8292 39.4271C29.9266 39.0279 30.4355 38.8171 30.7867 39.0305C33.0955 40.4337 36.1467 40.1376 38.1421 38.1422C40.1375 36.1467 40.4337 33.0955 39.0304 30.7867C38.817 30.4355 39.0278 29.9267 39.427 29.8293C42.0518 29.1889 44 26.822 44 24C44 21.178 42.0518 18.8111 39.4271 18.1708C39.0279 18.0734 38.8171 17.5645 39.0305 17.2133C40.4337 14.9045 40.1376 11.8533 38.1422 9.85788C36.1467 7.86244 33.0955 7.56633 30.7867 8.96954C30.4355 9.18296 29.9267 8.97218 29.8293 8.57296C29.1889 5.94818 26.822 4 24 4C21.1781 4 18.8111 5.94815 18.1708 8.5729C18.0734 8.97212 17.5645 9.18289 17.2133 8.96947C14.9045 7.56628 11.8533 7.86239 9.85788 9.85782C7.86244 11.8533 7.56633 14.9045 8.96954 17.2133C9.18297 17.5645 8.97218 18.0733 8.57296 18.1707C5.94818 18.8111 4 21.178 4 24C4 26.8219 5.94815 29.1889 8.5729 29.8292C8.97211 29.9266 9.18289 30.4355 8.96947 30.7867C7.56628 33.0954 7.8624 36.1467 9.85782 38.1421C11.8533 40.1375 14.9045 40.4337 17.2133 39.0304C17.5645 38.817 18.0733 39.0278 18.1707 39.427C18.8111 42.0518 21.178 44 24 44Z" stroke="currentColor" stroke-width="2" stroke-linecap="round"/>
</svg>
