<svg width="48" height="48" viewBox="0 0 48 48" fill="none" xmlns="http://www.w3.org/2000/svg">
<path vector-effect="non-scaling-stroke" fill-rule="evenodd" clip-rule="evenodd" d="M24.2929 9.70708C24.9229 9.07711 26 9.52328 26 10.4142L26 37.5858C26 38.4767 24.9229 38.9228 24.2929 38.2929L16 30H7C6.44772 30 6 29.5523 6 29L6 19C6 18.4477 6.44771 18 7 18L16 18L24.2929 9.70708Z" stroke="currentColor" stroke-width="2" stroke-linecap="round" stroke-linejoin="round"/>
<path vector-effect="non-scaling-stroke" d="M28 26C29.0092 24.9908 29.0092 23.0092 28 22" stroke="currentColor" stroke-width="2" stroke-linecap="round"/>
<path vector-effect="non-scaling-stroke" d="M32 32C36.1717 27.8283 36.1717 20.1717 32 16" stroke="currentColor" stroke-width="2" stroke-linecap="round"/>
<path vector-effect="non-scaling-stroke" d="M36 38C43.971 30.029 44.0154 18.0154 36 10" stroke="currentColor" stroke-width="2" stroke-linecap="round"/>
</svg>
