<svg width="48" height="48" viewBox="0 0 48 48" fill="none" xmlns="http://www.w3.org/2000/svg">
<path vector-effect="non-scaling-stroke" d="M20 15.5155V5C20 4.44771 20.4477 4 21 4H29C29.5523 4 30 4.44772 30 5V15.5155" stroke="currentColor" stroke-width="2" stroke-linecap="round" stroke-linejoin="round"/>
<path vector-effect="non-scaling-stroke" d="M30 30.4844V42.9999C30 43.5522 29.5523 43.9999 29 43.9999H21C20.4477 43.9999 20 43.5522 20 42.9999L20 30.4844" stroke="currentColor" stroke-width="2" stroke-linecap="round" stroke-linejoin="round"/>
<path vector-effect="non-scaling-stroke" fill-rule="evenodd" clip-rule="evenodd" d="M25 32C29.9706 32 34 27.9706 34 23C34 18.0294 29.9706 14 25 14C20.0294 14 16 18.0294 16 23C16 27.9706 20.0294 32 25 32Z" stroke="currentColor" stroke-width="2" stroke-linecap="round" stroke-linejoin="round"/>
</svg>
