<svg width="48" height="48" viewBox="0 0 48 48" fill="none" xmlns="http://www.w3.org/2000/svg">
<path vector-effect="non-scaling-stroke" d="M0 10C0 4.47715 4.47715 0 10 0H38C43.5229 0 48 4.47715 48 10V38C48 43.5229 43.5228 48 38 48H10C4.47715 48 0 43.5228 0 38V10Z" fill="currentColor" />
<path vector-effect="non-scaling-stroke" fill-rule="evenodd" clip-rule="evenodd" d="M39.0621 23.0816C39.059 30.9483 32.6595 37.3494 24.7911 37.3526H24.7852C22.3967 37.3517 20.0498 36.7525 17.9653 35.6155L10.4 37.6L12.4246 30.2049C11.1757 28.0406 10.5186 25.5855 10.5196 23.0703C10.5228 15.2017 16.9248 8.80005 24.7909 8.80005C28.6086 8.8017 32.1918 10.2879 34.8862 12.9855C37.5806 15.6829 39.0636 19.2684 39.0621 23.0816ZM18.3159 33.0319L13.8265 34.2096L15.0248 29.8324L14.7427 29.3836C13.5554 27.4951 12.9283 25.3124 12.9292 23.0711C12.9318 16.5311 18.2529 11.2104 24.7958 11.2104C27.964 11.2115 30.9422 12.4469 33.1817 14.689C35.4212 16.9311 36.6538 19.9112 36.6525 23.0807C36.6499 29.6212 31.3288 34.9424 24.7911 34.9424H24.7863C22.6578 34.9415 20.5702 34.3697 18.749 33.289L18.3159 33.0319ZM31.9808 26.4751C31.9091 26.3554 31.7411 26.2743 31.4924 26.1541C31.4321 26.1249 31.367 26.0935 31.2974 26.0586C30.9408 25.8801 29.1877 25.0176 28.8607 24.8985C28.534 24.7795 28.2961 24.7201 28.0585 25.0769C27.8208 25.4339 27.1374 26.2372 26.9294 26.4751C26.7214 26.7131 26.5133 26.7429 26.1569 26.5644C26.0986 26.5352 26.0193 26.5008 25.9213 26.4583L25.9212 26.4583C25.4192 26.2405 24.4288 25.8109 23.2893 24.7945C22.2292 23.8489 21.5135 22.6813 21.3055 22.3243C21.0975 21.9673 21.2834 21.7743 21.4619 21.5965C21.5687 21.4901 21.6913 21.3408 21.814 21.1914L21.814 21.1913L21.814 21.1913C21.8756 21.1163 21.9372 21.0413 21.9968 20.9718C22.1483 20.7949 22.214 20.6608 22.3032 20.4785C22.319 20.4464 22.3355 20.4127 22.3533 20.377C22.4722 20.1389 22.4128 19.9307 22.3236 19.7522C22.264 19.6328 21.9249 18.8074 21.6181 18.0603L21.618 18.0603C21.4663 17.6909 21.3225 17.3407 21.2242 17.1045C20.9686 16.4906 20.7096 16.4921 20.5018 16.4934C20.4742 16.4935 20.4475 16.4937 20.4219 16.4924C20.2141 16.482 19.9761 16.4798 19.7384 16.4798C19.5007 16.4798 19.1144 16.569 18.7876 16.926C18.7666 16.9489 18.7432 16.9739 18.7178 17.001C18.3464 17.3973 17.5395 18.2583 17.5395 19.9008C17.5395 21.6468 18.804 23.3339 18.9927 23.5857L18.9956 23.5896C19.0072 23.6051 19.0281 23.6351 19.0579 23.6779L19.0581 23.678C19.485 24.2904 21.7442 27.5304 25.0871 28.9739C25.9379 29.3413 26.602 29.5607 27.12 29.725C27.9741 29.9965 28.7516 29.9582 29.3659 29.8663C30.0511 29.764 31.4756 29.0038 31.7729 28.1709C32.0699 27.3378 32.0699 26.6238 31.9808 26.4751Z" fill="#F7F5ED"/>
</svg>
